/* XPM */
static char *xterm_png[] = {
/* columns rows colors chars-per-pixel */
"24 24 3 1 11 12",
"  c None",
". c red",
"X c white",
/* pixels */
"                        ",
"                        ",
"                        ",
"       XXXXXXX          ",
"       X.....X          ",
"       XXX.XXX          ",
"         X.X            ",
"         X.X            ",
"         X.X            ",
"         X.X            ",
"         X.X            ",
"         X.X            ",
"         X.X            ",
"         X.X            ",
"         X.X            ",
"         X.X            ",
"         X.X            ",
"         X.X            ",
"       XXX.XXX          ",
"       X.....X          ",
"       XXXXXXX          ",
"                        ",
"                        ",
"                        "
};
